<?xml version="1.0" encoding="UTF-8" standalone="no"?>
<!-- Created with Inkscape (http://www.inkscape.org/) -->

<svg
   version="1.1"
   id="svg1"
   width="1365.3333"
   height="1365.3333"
   viewBox="0 0 1365.3333 1365.3333"
   sodipodi:docname="Stargate check.ai"
   xmlns:inkscape="http://www.inkscape.org/namespaces/inkscape"
   xmlns:sodipodi="http://sodipodi.sourceforge.net/DTD/sodipodi-0.dtd"
   xmlns="http://www.w3.org/2000/svg"
   xmlns:svg="http://www.w3.org/2000/svg">
  <defs
     id="defs1">
    <clipPath
       clipPathUnits="userSpaceOnUse"
       id="clipPath74">
      <path
         d="M 0,1024 H 1024 V 0 H 0 Z"
         transform="translate(-932.13532,-508.59752)"
         id="path74" />
    </clipPath>
    <clipPath
       clipPathUnits="userSpaceOnUse"
       id="clipPath78">
      <path
         d="M 0,1024 H 1024 V 0 H 0 Z"
         transform="translate(-479.25854,-884.88782)"
         id="path78" />
    </clipPath>
    <clipPath
       clipPathUnits="userSpaceOnUse"
       id="clipPath80">
      <path
         d="M 0,1024 H 1024 V 0 H 0 Z"
         transform="translate(-645.44339,-616.17651)"
         id="path80" />
    </clipPath>
    <clipPath
       clipPathUnits="userSpaceOnUse"
       id="clipPath82">
      <path
         d="M 0,1024 H 1024 V 0 H 0 Z"
         transform="translate(-695.06489,-701.02172)"
         id="path82" />
    </clipPath>
  </defs>
  <sodipodi:namedview
     id="namedview1"
     pagecolor="#ffffff"
     bordercolor="#000000"
     borderopacity="0.25"
     inkscape:showpageshadow="2"
     inkscape:pageopacity="0.0"
     inkscape:pagecheckerboard="0"
     inkscape:deskcolor="#d1d1d1">
    <inkscape:page
       x="0"
       y="0"
       inkscape:label="2"
       id="page73"
       width="1365.3333"
       height="1365.3333"
       margin="21.254932 0 31.266666 16.189734"
       bleed="0" />
  </sodipodi:namedview>
  <g
     id="layer-MC0"
     inkscape:groupmode="layer"
     inkscape:label="Artboard 2"
     transform="translate(-1385.3332)">
    <path
       id="path73"
       d="m 0,0 c 0,232.574 -188.539,421.113 -421.113,421.113 -232.574,0 -421.113,-188.539 -421.113,-421.113 0,-232.574 188.539,-421.113 421.113,-421.113 C -188.539,-421.113 0,-232.574 0,0 m -67.453,353 c 23.978,-23.981 10.797,-65.451 27.768,-92.817 18.974,-30.597 65.954,-33.172 79.076,-65.368 C 53.507,160.182 17.509,121.532 36.361,78.293 46.971,53.959 71.864,40.212 78.136,13.025 88.284,-30.962 46.909,-46.485 34.258,-81.182 c -15.204,-41.698 18.268,-74.005 5.128,-109.592 -10.999,-29.792 -41.749,-34.508 -64.249,-51.817 -35.197,-27.075 -17.661,-69.425 -38.048,-103.822 -23.241,-39.214 -88.417,-7.654 -119.92,-50.318 -15.57,-21.086 -19.66,-51.992 -47.602,-62.02 -37.141,-13.33 -73.918,26.168 -115.135,8.091 -25.386,-11.134 -41.466,-42.977 -71.634,-41.973 -40.694,1.354 -55.371,38.519 -90.549,46.161 -35.155,7.637 -70.921,-23.265 -105.134,-10.989 -29.976,10.755 -32.05,49.686 -54.486,68.033 -46.355,37.908 -104.624,-4.252 -121.466,74.566 -4.219,19.744 -3.26,41.357 -14.786,58.725 -18.598,28.025 -60.437,30.204 -75.202,61.504 -17.044,36.132 21.018,75.308 2.157,118.229 -9.922,22.582 -34.649,37.243 -40.879,61.005 -14.493,55.272 39.927,66.145 45.429,111.924 3.779,31.436 -14.077,58.522 -11.085,85.886 3.876,35.449 42.672,41.122 65.628,60.762 35.771,30.604 19.345,55.434 33.486,91.613 19.578,50.093 74.036,25.042 109.571,50.348 25.488,18.151 33.168,62.191 60.341,73.785 35.997,15.359 70.976,-19.554 106.447,-12.299 28.968,5.924 48.503,41.024 76.508,44.721 48.251,6.372 61.706,-38.856 102.102,-45.992 33.437,-5.906 59.88,20.108 92.391,16.302 38.545,-4.513 40.264,-55.378 66.904,-74.962 30.814,-22.653 78.673,-9.989 102.372,-33.689"
       style="fill:#1b2f50;fill-opacity:1;fill-rule:nonzero;stroke:none"
       transform="matrix(1.3333333,0,0,-1.3333333,2628.1804,687.20333)"
       clip-path="url(#clipPath74)" />
    <path
       id="path77"
       d="m 0,0 c -83.528,-5.076 -162.357,-38.8 -224.157,-94.394 -158.015,-142.145 -166.457,-385.295 -21.94,-540.428 165.409,-177.56 446.282,-154.969 588.662,38.19 84.213,114.248 95.688,274.838 27.221,399.718 C 297.105,-64.347 150.152,9.124 0,0 M 5.205,23.285 C 143.817,30.151 272.03,-27.605 356.728,-136.46 456.427,-264.595 466.08,-451.411 376.376,-587.884 263.962,-758.908 71.908,-818.956 -121.656,-750.26 c -32.852,11.659 -77.116,41.147 -104.929,62.729 -96.585,74.95 -157.627,226.56 -144.421,347.923 6.569,60.365 23.331,122.486 56.048,173.515 71.625,111.712 185.876,182.726 320.163,189.378"
       style="fill:#1b2f50;fill-opacity:1;fill-rule:nonzero;stroke:none"
       transform="matrix(1.3333333,0,0,-1.3333333,2024.3447,185.48293)"
       clip-path="url(#clipPath78)" />
    <path
       id="path79"
       d="m 0,0 c 29.751,29.632 61.152,66.947 92.627,93.729 8.727,7.426 13.408,10.728 25.56,6.146 16.328,-6.156 45.296,-50.829 60.057,-63.748 2.451,-4.138 2.004,-9.397 -0.391,-13.439 -87.041,-90.36 -177.441,-177.881 -267.071,-265.566 -20.595,-20.148 -44.143,-48.328 -65.711,-65.836 -10.684,-8.674 -16.474,-8.656 -27.14,0 l -193.453,193.451 c -5.327,5.857 -6.63,16.108 -1.906,22.6 21.521,18.741 40.871,44.559 62.52,62.579 10.895,9.068 18.62,9.015 29.722,-0.002 36.955,-34.62 71.913,-79.106 110.22,-111.604 3.871,-3.284 10.239,-8.849 15.194,-9.415 13.192,-1.507 37.454,29.815 46.695,39.13 C -75.711,-74.315 -37.573,-37.422 0,0"
       style="fill:#1b2f50;fill-opacity:1;fill-rule:nonzero;stroke:none"
       transform="matrix(1.3333333,0,0,-1.3333333,2245.9245,543.76467)"
       clip-path="url(#clipPath80)" />
    <path
       id="path81"
       d="m 0,0 c -0.216,0.126 -1.012,2.659 -2.026,3.71 -54.348,56.357 -145.315,79.861 -221.695,68.13 -72.555,-11.143 -128.881,-46.55 -174.916,-102.365 -117.608,-142.594 -43.035,-367.034 132.52,-416.806 113.594,-32.204 209.023,-4.247 287.25,82.155 53.615,59.218 77.446,146.726 59.953,225.052 0.463,2.527 14.054,16.355 15.469,14.84 16.043,-65.162 5.841,-132.859 -21.314,-193.404 -36.108,-80.507 -143.607,-155.591 -232.049,-160.015 -159.635,-7.985 -288.716,89.134 -312.402,248.714 -17.046,114.837 39.579,227.119 138.49,285.019 91.096,53.324 197.675,49.923 288.862,-0.821 C -34.567,50.151 15.294,16.303 15.289,12.073 12.156,9.902 3.731,-2.182 0,0"
       style="fill:#1b2f50;fill-opacity:1;fill-rule:nonzero;stroke:none"
       transform="matrix(1.3333333,0,0,-1.3333333,2312.0865,430.63773)"
       clip-path="url(#clipPath82)" />
    <path
       style="fill:#ffffff;stroke:#2a86c4;stroke-width:1.64888"
       d="m 2058.6295,1341.4793 c -18.9992,-4.3722 -30.4681,-10.9057 -59.3598,-33.8155 -18.5635,-14.7201 -36.4021,-23.8615 -51.5485,-26.4163 -15.2584,-2.5737 -30.8161,-0.3733 -63.909,9.0389 -29.2594,8.3218 -45.3904,10.801 -58.5845,9.004 -24.0289,-3.2728 -38.3975,-16.0439 -56.6201,-50.3251 -14.1274,-26.5774 -18.6455,-33.2135 -28.581,-41.9801 -16.2279,-14.3186 -38.463,-22.5252 -73.8311,-27.25 -27.5172,-3.6759 -39.3351,-6.6202 -50.5367,-12.5906 -24.0403,-12.8133 -35.2347,-35.4807 -42.6213,-86.3023 -7.4257,-51.0918 -15.9383,-63.3284 -61.963,-89.07072 -35.6241,-19.92505 -45.6855,-28.76042 -54.7256,-48.05709 -4.0281,-8.59806 -4.4888,-11.37843 -4.3268,-26.11152 0.1477,-13.43387 1.4929,-21.83499 7.2608,-45.34426 6.0317,-24.58462 7.1029,-31.53995 7.2375,-46.99314 0.2437,-27.9803 -5.2298,-40.91138 -29.5641,-69.84558 -27.792,-33.04542 -33.7714,-45.30492 -33.9299,-69.56668 -0.1531,-23.42405 4.4121,-33.50759 29.1409,-64.36583 20.0123,-24.97263 24.2006,-31.20717 28.7949,-42.86299 8.2556,-20.94481 7.5308,-42.21821 -2.8253,-82.91663 -4.905,-19.27636 -5.9613,-26.43726 -6.1129,-41.4408 -0.1676,-16.59755 0.1973,-18.91245 4.2977,-27.26151 7.9732,-16.23464 18.9708,-25.22162 57.3522,-46.86699 21.9481,-12.37773 37.6633,-26.44575 47.584,-42.59653 5.9121,-9.62486 9.831,-24.78167 12.5629,-48.58811 4.2745,-37.24995 10.5955,-55.8023 23.9478,-70.28786 13.5398,-14.68897 27.9748,-19.95169 70.6723,-25.76572 55.3866,-7.54188 68.1355,-16.16252 97.512,-65.93641 24.9642,-42.297982 37.2452,-53.088002 63.1801,-55.509839 14.0514,-1.312139 26.9884,1.158085 58.2211,11.116816 56.1242,17.895613 70.4458,15.561502 112.6259,-18.355659 33.4094,-26.864598 42.9906,-31.502935 65.245,-31.58556 23.0258,-0.08549 38.8344,7.401068 71.7264,33.967833 28.8846,23.329994 51.7473,31.452942 77.9441,27.692925 7.0473,-1.011497 25.2262,-6.023075 40.3976,-11.136841 22.9066,-7.721028 30.1176,-9.443729 42.5226,-10.158526 22.5747,-1.300792 31.3533,1.765288 45.1436,15.767192 10.7183,10.882801 13.0401,14.458759 31.1812,48.023529 12.6327,23.37326 23.3305,34.6913 40.4781,42.82486 15.9564,7.56858 19.7643,8.52725 59.2013,14.90442 32.5126,5.25747 43.9725,8.6595 55.9953,16.62309 18.0451,11.95261 25.2927,29.2062 30.109,71.67826 1.4377,12.67818 3.772,27.87421 5.1873,33.76896 6.3626,26.50015 21.3048,42.9407 56.8119,62.5088 37.666,20.75784 49.1079,30.31516 57.3347,47.89107 6.5987,14.09755 6.0107,34.42167 -1.9342,66.85497 -10.4513,42.66551 -11.2891,58.22667 -4.3497,80.79523 4.1935,13.63845 11.6548,25.4276 30.4823,48.16298 29.0826,35.1191 36.1188,59.78389 25.3019,88.69451 -3.4257,9.15595 -13.2477,23.15895 -33.5401,47.81733 -12.6414,15.36135 -22.9308,34.59996 -25.7558,48.15695 -3.1734,15.22915 -1.0567,37.29772 6.3726,66.44036 3.5834,14.05672 7.0313,30.07802 7.662,35.60288 2.3975,21.00389 -5.0966,41.67952 -20.564,56.73453 -9.4575,9.20539 -12.5412,11.20623 -46.0588,29.88503 -39.8216,22.19207 -50.302,39.13417 -56.9924,92.13227 -3.1864,25.2403 -6.4378,38.9549 -12.3549,52.1127 -11.8125,26.2677 -29.5011,34.8141 -83.2725,40.2341 -39.0349,3.9346 -58.4298,11.3513 -74.3736,28.4409 -7.3713,7.901 -13.1053,16.9565 -23.7349,37.4836 -16.0391,30.9738 -25.0542,41.8511 -40.5751,48.9568 -18.8062,8.6097 -35.7296,7.7957 -73.557,-3.5381 -31.6405,-9.48 -42.9326,-11.4151 -60.293,-10.332 -19.2087,1.1984 -34.5914,8.9325 -58.0673,29.1952 -34.6304,29.8904 -50.3917,36.3324 -75.0241,30.6638 z m 73.3752,-95.8332 c 169.1706,-19.3834 321.4577,-116.0111 412.5261,-261.75176 15.5441,-24.87593 40.6427,-76.2952 50.0034,-102.44169 14.375,-40.15248 23.8956,-78.5593 29.7651,-120.07393 3.5758,-25.29096 4.9807,-95.12705 2.4829,-123.41815 -21.0643,-238.58152 -190.519,-437.50645 -422.6171,-496.11527 -76.6126,-19.34602 -167.0265,-21.74779 -245.293,-6.51603 -52.4314,10.20389 -97.1163,25.56657 -145.9261,50.16938 -153.9709,77.6098 -263.6192,221.87715 -297.6376,391.61014 -7.3917,36.8806 -10.3324,68.33004 -10.33,110.47511 0,64.79141 8.5561,118.25229 28.5147,178.24534 20.0348,60.22226 50.4931,116.62834 91.618,169.66886 17.8332,23.0001 64.6702,70.4666 87.2531,88.4258 95.5822,76.0121 201.4418,116.9248 323.1809,124.9032 18.5033,1.2126 74.1214,-0.6215 96.4596,-3.181 z"
       id="path86" />
    <path
       style="fill:#ffffff;stroke:#2a86c4;stroke-width:1.64888"
       d="m 2020.7052,1220.0973 c -69.0474,-6.9934 -144.0565,-26.1562 -187.3553,-47.8643 -46.0877,-23.1062 -105.4272,-63.995 -139.2989,-95.9859 -68.8204,-64.999 -124.2745,-164.27577 -149.7777,-268.1398 -21.5255,-87.6649 -21.0571,-164.42537 1.5658,-256.55619 23.3814,-95.22005 63.6923,-165.71918 136.8231,-239.28793 16.3361,-16.43393 36.751,-35.41829 45.3664,-42.18745 78.6664,-61.80851 161.8638,-97.12354 262.1723,-111.28497 29.398,-4.15038 112.4162,-4.14953 141.8038,0.001 66.0682,9.3321 118.5534,25.08557 173.9571,52.21334 151.828,74.34072 257.7585,209.81147 290.7849,371.87432 8.0496,39.49993 9.2787,53.67091 9.2241,106.3529 -0.056,54.1871 -2.0853,74.51747 -11.5597,115.81202 -24.9686,108.82665 -85.9746,208.09476 -176.5845,287.33616 -68.338,59.7638 -153.6864,101.7161 -242.9509,119.4206 -33.7248,6.6889 -52.9269,8.5125 -96.4596,9.1605 -23.579,0.3511 -49.5489,-0.038 -57.7109,-0.8648 z m 86.0643,-28.0777 c 102.2335,-8.5761 199.0346,-47.1454 280.4139,-111.728 22.4232,-17.795 63.1567,-58.5362 81.0538,-81.06896 56.076,-70.60098 89.7134,-148.79343 104.2714,-242.38569 5.0319,-32.34934 5.5001,-108.36843 0.8583,-139.33055 -8.8641,-59.12514 -23.4429,-106.48831 -47.7043,-154.98017 -89.636,-179.15761 -287.3437,-289.78377 -496.5026,-277.81504 -72.2414,4.13389 -133.94,20.66074 -197.4648,52.89373 -134.9348,68.46702 -231.3201,194.66589 -262.5319,343.73749 -7.8559,37.52051 -9.9528,59.43371 -9.9299,103.76816 0.023,43.83612 1.9116,63.81971 9.6655,102.25481 29.9747,148.57981 128.9808,279.72192 264.1995,349.95472 83.8612,43.5576 179.2394,62.6211 273.6711,54.6995 z"
       id="path87" />
    <path
       style="fill:#ffffff;stroke:#2a86c4;stroke-width:1.64888"
       d="m 2035.5451,1066.787 c -83.3886,-9.1992 -154.3603,-37.4154 -212.7058,-84.56545 -29.7645,-24.05329 -64.179,-63.78672 -83.3283,-96.20717 -48.6914,-82.43617 -67.1128,-184.69031 -49.2638,-273.45462 29.0033,-144.2353 138.4519,-259.08248 281.2166,-295.08777 31.3543,-7.90756 48.1355,-9.78454 87.9901,-9.84175 38.3447,-0.055 54.9457,1.67651 86.9227,9.06631 28.3969,6.56246 66.7377,20.56802 94.2963,34.4456 20.3712,10.25827 71.683,45.25088 85.4642,58.2832 l 5.3354,5.04542 -8.2698,8.1834 -8.2698,8.18341 -5.6954,-6.65373 c -8.0194,-9.36891 -33.5517,-29.76677 -51.0933,-40.81863 -40.2651,-25.36861 -90.006,-42.58626 -145.926,-50.51178 -21.6727,-3.07166 -73.1355,-2.64424 -95.6352,0.79428 -67.0093,10.2407 -124.8124,35.28854 -175.4805,76.04111 -31.071,24.99053 -68.8647,67.48003 -88.7844,99.81579 -35.2811,57.27189 -52.761,130.91724 -47.3833,199.6322 9.2092,117.67243 71.0513,221.76538 167.1226,281.30144 40.4454,25.06424 90.772,42.32674 148.969,51.09774 27.6353,4.165 81.2835,3.8047 107.6806,-0.7231 73.608,-12.6258 135.5541,-45.8183 194.3215,-104.12311 31.5073,-31.25936 50.6988,-57.81872 69.6022,-96.32355 31.5256,-64.21547 42.9407,-139.29811 31.4596,-206.9258 l -2.8935,-17.04359 8.9039,-9.04727 c 4.8971,-4.97598 9.239,-8.71206 9.6487,-8.30241 0.4096,0.40966 2.1389,7.69856 3.8427,16.19756 14.0913,70.29043 4.5331,152.15104 -26.4608,226.62187 -9.2246,22.16434 -14.3845,32.03344 -25.804,49.35426 -54.1706,82.1641 -155.3378,151.58484 -250.1999,171.68664 -17.0561,3.6142 -24.9311,4.2836 -56.1158,4.7695 -19.9515,0.3109 -42.2114,-0.09 -49.4665,-0.89 z"
       id="path88" />
    <path
       style="fill:#ffffff;stroke:#2a86c4;stroke-width:1.64888"
       d="m 2012.4217,960.41114 c -2.7421,-1.35357 -64.8356,-62.36592 -137.9855,-135.58302 -117.9038,-118.0121 -133.1263,-133.82261 -134.1141,-139.29449 -0.6129,-3.39485 -0.6332,-8.08914 -0.045,-10.43174 1.1924,-4.75091 68.4639,-75.24855 84.2114,-88.25001 12.2626,-10.12422 19.3892,-12.57816 28.2318,-9.72116 7.2181,2.33211 40.3774,34.72383 89.4393,87.36883 31.3339,33.62222 67.9119,68.7138 79.2809,76.05909 15.077,9.74094 25.5407,5.0118 52.8537,-23.8876 9.5223,-10.0754 59.681,-60.62409 111.4639,-112.33043 51.7829,-51.70636 108.5457,-109.16812 126.1395,-127.6928 31.2814,-32.93645 58.3676,-58.59863 68.2642,-64.67534 10.517,-6.45766 24.6349,-2.1919 39.6059,11.96703 4.9777,4.70774 17.0009,18.28031 26.7181,30.16128 9.7173,11.88096 22.328,27.00494 28.0239,33.60883 15.5144,17.98761 16.3844,15.74344 -21.3848,55.16343 -17.4576,18.22056 -85.9068,86.57585 -152.1094,151.90063 -66.2026,65.32479 -151.5323,150.08769 -189.6215,188.36201 -38.1149,38.30017 -72.9198,71.88769 -77.408,74.70061 -9.02,5.65301 -14.0993,6.25951 -21.564,2.57485 z"
       id="path89" />
  </g>
</svg>
