<?xml version="1.0" encoding="UTF-8" standalone="no"?>
<!-- Created with Inkscape (http://www.inkscape.org/) -->

<svg
   version="1.1"
   id="svg1"
   width="7676.1865"
   height="1365.3333"
   viewBox="0 0 7676.1865 1365.3333"
   sodipodi:docname="encypher_full_logo_new.svg"
   inkscape:version="1.3.2 (091e20e, 2023-11-25, custom)"
   xmlns:inkscape="http://www.inkscape.org/namespaces/inkscape"
   xmlns:sodipodi="http://sodipodi.sourceforge.net/DTD/sodipodi-0.dtd"
   xmlns="http://www.w3.org/2000/svg"
   xmlns:svg="http://www.w3.org/2000/svg">
  <defs
     id="defs1">
    <clipPath
       clipPathUnits="userSpaceOnUse"
       id="clipPath1">
      <path
         d="M 0,1024 H 5757.143 V 0 H 0 Z"
         transform="matrix(1,0,0,-1,-1094.5947,190.85553)"
         id="path1" />
    </clipPath>
    <clipPath
       clipPathUnits="userSpaceOnUse"
       id="clipPath3">
      <path
         d="M 0,1024 H 5757.143 V 0 H 0 Z"
         transform="translate(-986.19925,-512.35091)"
         id="path3" />
    </clipPath>
    <clipPath
       clipPathUnits="userSpaceOnUse"
       id="clipPath5">
      <path
         d="M 0,1024 H 5757.143 V 0 H 0 Z"
         transform="translate(-533.32231,-888.64122)"
         id="path5" />
    </clipPath>
    <clipPath
       clipPathUnits="userSpaceOnUse"
       id="clipPath7">
      <path
         d="M 0,1024 H 5757.143 V 0 H 0 Z"
         transform="translate(-699.50722,-619.92992)"
         id="path7" />
    </clipPath>
    <clipPath
       clipPathUnits="userSpaceOnUse"
       id="clipPath9">
      <path
         d="M 0,1024 H 5757.143 V 0 H 0 Z"
         transform="translate(-749.12882,-704.77502)"
         id="path9" />
    </clipPath>
    <clipPath
       clipPathUnits="userSpaceOnUse"
       id="clipPath10">
      <path
         d="M 0,1024 H 5757.143 V 0 H 0 Z"
         transform="matrix(1,0,0,-1,-1094.5948,190.85553)"
         id="path10" />
    </clipPath>
    <clipPath
       clipPathUnits="userSpaceOnUse"
       id="clipPath12">
      <path
         d="M 0,1024 H 5757.143 V 0 H 0 Z"
         transform="translate(-985.22172,-512.01272)"
         id="path12" />
    </clipPath>
    <clipPath
       clipPathUnits="userSpaceOnUse"
       id="clipPath14">
      <path
         d="M 0,1024 H 5757.143 V 0 H 0 Z"
         transform="translate(-532.34479,-888.30302)"
         id="path14" />
    </clipPath>
    <clipPath
       clipPathUnits="userSpaceOnUse"
       id="clipPath16">
      <path
         d="M 0,1024 H 5757.143 V 0 H 0 Z"
         transform="translate(-698.52972,-619.59171)"
         id="path16" />
    </clipPath>
    <clipPath
       clipPathUnits="userSpaceOnUse"
       id="clipPath18">
      <path
         d="M 0,1024 H 5757.143 V 0 H 0 Z"
         transform="translate(-748.15129,-704.43692)"
         id="path18" />
    </clipPath>
  </defs>
  <sodipodi:namedview
     id="namedview1"
     pagecolor="#ffffff"
     bordercolor="#000000"
     borderopacity="0.25"
     inkscape:showpageshadow="2"
     inkscape:pageopacity="0.0"
     inkscape:pagecheckerboard="0"
     inkscape:deskcolor="#d1d1d1"
     inkscape:zoom="0.23475198"
     inkscape:cx="11360.926"
     inkscape:cy="683.7003"
     inkscape:window-width="2560"
     inkscape:window-height="1369"
     inkscape:window-x="-8"
     inkscape:window-y="1432"
     inkscape:window-maximized="1"
     inkscape:current-layer="layer-MC0">
    <inkscape:page
       x="0"
       y="0"
       inkscape:label="1"
       id="page1"
       width="7676.1865"
       height="1365.3333"
       margin="0 91.919998 26.253334 88.274933"
       bleed="0" />
    <inkscape:page
       x="7696.1867"
       y="0"
       inkscape:label="2"
       id="page9"
       width="7676.1867"
       height="1365.3333"
       margin="0 91.92 26.70666667 86.9716" />
  </sodipodi:namedview>
  <g
     id="layer-MC0"
     inkscape:groupmode="layer"
     inkscape:label="Layer 7 copy 2 Image">
    <text
       id="text1"
       xml:space="preserve"
       transform="matrix(1.3333333,0,0,1.3333333,1459.4596,1110.8593)"
       clip-path="url(#clipPath1)"><tspan
         style="font-style:normal;font-variant:normal;font-weight:bold;font-stretch:normal;font-size:900px;font-family:Roboto;-inkscape-font-specification:'Roboto Bold';writing-mode:lr-tb;fill:#1b2f50;fill-opacity:1;fill-rule:nonzero;stroke:none"
         x="0 504.89999 1138.5 1728 2289.6001 2872.8 3507.3 4012.2"
         y="0"
         sodipodi:role="line"
         id="tspan1">ENCYPHER</tspan></text>
    <path
       id="path2"
       d="m 0,0 c 0,232.574 -188.539,421.113 -421.113,421.113 -232.574,0 -421.113,-188.539 -421.113,-421.113 0,-232.574 188.539,-421.113 421.113,-421.113 C -188.539,-421.113 0,-232.574 0,0 m -67.453,353 c 23.979,-23.981 10.797,-65.451 27.768,-92.817 18.974,-30.597 65.954,-33.172 79.076,-65.368 C 53.507,160.182 17.509,121.532 36.361,78.293 46.971,53.959 71.864,40.212 78.136,13.025 88.284,-30.962 46.909,-46.485 34.258,-81.182 c -15.204,-41.698 18.268,-74.005 5.128,-109.592 -10.999,-29.792 -41.748,-34.508 -64.249,-51.817 -35.197,-27.075 -17.661,-69.425 -38.048,-103.822 -23.241,-39.214 -88.417,-7.654 -119.92,-50.318 -15.57,-21.086 -19.66,-51.992 -47.602,-62.02 -37.141,-13.33 -73.918,26.168 -115.134,8.091 -25.387,-11.134 -41.467,-42.977 -71.635,-41.973 -40.694,1.354 -55.371,38.519 -90.549,46.161 -35.155,7.637 -70.921,-23.265 -105.134,-10.989 -29.976,10.755 -32.05,49.686 -54.486,68.033 -46.355,37.908 -104.624,-4.252 -121.466,74.566 -4.219,19.744 -3.26,41.357 -14.786,58.725 -18.598,28.025 -60.437,30.204 -75.202,61.504 -17.044,36.132 21.018,75.308 2.157,118.229 -9.922,22.582 -34.649,37.243 -40.879,61.005 -14.493,55.272 39.927,66.145 45.429,111.924 3.779,31.436 -14.077,58.522 -11.085,85.886 3.876,35.449 42.672,41.122 65.628,60.762 35.771,30.604 19.345,55.434 33.486,91.613 19.578,50.093 74.036,25.042 109.571,50.348 25.488,18.151 33.168,62.191 60.342,73.785 35.996,15.359 70.975,-19.554 106.446,-12.299 28.968,5.924 48.503,41.024 76.508,44.721 48.251,6.372 61.706,-38.856 102.102,-45.992 33.437,-5.906 59.88,20.108 92.391,16.301 38.545,-4.512 40.264,-55.377 66.904,-74.961 30.814,-22.653 78.673,-9.989 102.372,-33.689"
       style="fill:#1b2f50;fill-opacity:1;fill-rule:nonzero;stroke:none"
       transform="matrix(1.3333333,0,0,-1.3333333,1314.9323,682.1988)"
       clip-path="url(#clipPath3)" />
    <path
       id="path4"
       d="m 0,0 c -83.528,-5.076 -162.357,-38.8 -224.157,-94.394 -158.015,-142.145 -166.457,-385.295 -21.94,-540.428 165.409,-177.56 446.282,-154.97 588.662,38.19 84.213,114.248 95.688,274.838 27.221,399.718 C 297.105,-64.347 150.152,9.124 0,0 M 5.205,23.285 C 143.817,30.151 272.03,-27.605 356.728,-136.46 456.427,-264.595 466.08,-451.411 376.376,-587.884 263.962,-758.908 71.908,-818.956 -121.656,-750.26 c -32.852,11.659 -77.116,41.147 -104.929,62.729 -96.585,74.95 -157.627,226.56 -144.421,347.923 6.569,60.365 23.33,122.486 56.048,173.515 71.625,111.712 185.876,182.726 320.163,189.378"
       style="fill:#1b2f50;fill-opacity:1;fill-rule:nonzero;stroke:none"
       transform="matrix(1.3333333,0,0,-1.3333333,711.0964,180.4784)"
       clip-path="url(#clipPath5)" />
    <path
       id="path6"
       d="m 0,0 c 29.751,29.632 61.152,66.947 92.627,93.729 8.727,7.426 13.408,10.728 25.56,6.146 16.328,-6.156 45.296,-50.829 60.057,-63.748 2.451,-4.138 2.004,-9.397 -0.391,-13.439 -87.041,-90.36 -177.441,-177.881 -267.071,-265.566 -20.595,-20.148 -44.143,-48.328 -65.711,-65.836 -10.684,-8.674 -16.474,-8.656 -27.14,0 l -193.453,193.451 c -5.327,5.857 -6.63,16.108 -1.906,22.6 21.521,18.741 40.871,44.559 62.52,62.579 10.895,9.068 18.62,9.015 29.722,-0.002 36.955,-34.62 71.913,-79.106 110.22,-111.604 3.871,-3.284 10.239,-8.849 15.195,-9.415 13.191,-1.507 37.453,29.815 46.694,39.13 C -75.711,-74.315 -37.573,-37.422 0,0"
       style="fill:#1b2f50;fill-opacity:1;fill-rule:nonzero;stroke:none"
       transform="matrix(1.3333333,0,0,-1.3333333,932.67627,538.76013)"
       clip-path="url(#clipPath7)" />
    <path
       id="path8"
       d="m 0,0 c -0.216,0.126 -1.012,2.659 -2.026,3.71 -54.348,56.357 -145.316,79.861 -221.695,68.13 -72.555,-11.143 -128.881,-46.55 -174.916,-102.365 -117.608,-142.594 -43.035,-367.034 132.52,-416.806 113.594,-32.204 209.023,-4.247 287.25,82.155 53.615,59.218 77.446,146.726 59.953,225.052 0.463,2.527 14.054,16.355 15.468,14.84 16.044,-65.162 5.842,-132.859 -21.313,-193.404 -36.108,-80.507 -143.607,-155.591 -232.049,-160.015 -159.635,-7.985 -288.716,89.134 -312.403,248.714 -17.045,114.837 39.58,227.12 138.491,285.019 91.096,53.324 197.675,49.923 288.862,-0.821 C -34.567,50.151 15.294,16.303 15.289,12.073 12.155,9.902 3.731,-2.182 0,0"
       style="fill:#1b2f50;fill-opacity:1;fill-rule:nonzero;stroke:none"
       transform="matrix(1.3333333,0,0,-1.3333333,998.8384,425.63333)"
       clip-path="url(#clipPath9)" />
    <text
       id="text9"
       xml:space="preserve"
       transform="matrix(1.3333333,0,0,1.3333333,9155.6463,1110.8593)"
       clip-path="url(#clipPath10)"><tspan
         style="font-style:normal;font-variant:normal;font-weight:bold;font-stretch:normal;font-size:900px;font-family:Roboto;-inkscape-font-specification:'Roboto Bold';writing-mode:lr-tb;fill:#1b2f50;fill-opacity:1;fill-rule:nonzero;stroke:none"
         x="0 504.89999 1138.5 1728 2289.6001 2872.8 3507.3 4012.2"
         y="0"
         sodipodi:role="line"
         id="tspan9">ENCYPHER</tspan></text>
    <path
       id="path11"
       d="m 0,0 c 0,232.574 -188.539,421.113 -421.113,421.113 -232.574,0 -421.113,-188.539 -421.113,-421.113 0,-232.574 188.539,-421.113 421.113,-421.113 C -188.539,-421.113 0,-232.574 0,0 m -67.453,353 c 23.978,-23.981 10.797,-65.451 27.768,-92.817 18.974,-30.597 65.954,-33.172 79.076,-65.368 C 53.507,160.182 17.509,121.532 36.361,78.293 46.971,53.959 71.864,40.212 78.136,13.025 88.284,-30.962 46.909,-46.485 34.258,-81.182 c -15.204,-41.698 18.268,-74.005 5.128,-109.592 -10.999,-29.792 -41.749,-34.508 -64.249,-51.817 -35.197,-27.075 -17.661,-69.425 -38.048,-103.822 -23.241,-39.214 -88.417,-7.654 -119.92,-50.318 -15.57,-21.086 -19.66,-51.992 -47.602,-62.02 -37.141,-13.33 -73.918,26.168 -115.135,8.091 -25.386,-11.134 -41.466,-42.977 -71.634,-41.973 -40.694,1.354 -55.371,38.519 -90.549,46.161 -35.155,7.637 -70.921,-23.265 -105.134,-10.989 -29.976,10.755 -32.05,49.686 -54.486,68.033 -46.355,37.908 -104.624,-4.252 -121.466,74.566 -4.219,19.744 -3.26,41.357 -14.786,58.725 -18.598,28.025 -60.437,30.204 -75.202,61.504 -17.044,36.132 21.018,75.308 2.157,118.229 -9.922,22.582 -34.649,37.243 -40.879,61.005 -14.493,55.272 39.927,66.145 45.429,111.924 3.779,31.436 -14.077,58.522 -11.085,85.886 3.876,35.449 42.672,41.122 65.628,60.762 35.771,30.604 19.345,55.434 33.486,91.613 19.578,50.093 74.036,25.042 109.571,50.348 25.488,18.151 33.168,62.191 60.341,73.785 35.997,15.359 70.976,-19.554 106.447,-12.299 28.968,5.924 48.503,41.024 76.508,44.721 48.251,6.372 61.706,-38.856 102.102,-45.992 33.437,-5.906 59.88,20.108 92.391,16.302 38.545,-4.513 40.264,-55.378 66.904,-74.962 30.814,-22.653 78.673,-9.989 102.372,-33.689"
       style="fill:#1b2f50;fill-opacity:1;fill-rule:nonzero;stroke:none"
       transform="matrix(1.3333333,0,0,-1.3333333,9009.8156,682.64973)"
       clip-path="url(#clipPath12)" />
    <path
       id="path13"
       d="m 0,0 c -83.528,-5.076 -162.357,-38.8 -224.157,-94.394 -158.015,-142.145 -166.457,-385.295 -21.94,-540.428 165.409,-177.56 446.282,-154.969 588.662,38.19 84.213,114.248 95.688,274.838 27.221,399.718 C 297.105,-64.347 150.152,9.124 0,0 M 5.205,23.285 C 143.817,30.151 272.03,-27.605 356.728,-136.46 456.427,-264.595 466.08,-451.411 376.376,-587.884 263.962,-758.908 71.908,-818.956 -121.656,-750.26 c -32.852,11.659 -77.116,41.147 -104.929,62.729 -96.585,74.95 -157.627,226.56 -144.421,347.923 6.569,60.365 23.331,122.486 56.048,173.515 71.625,111.712 185.876,182.726 320.163,189.378"
       style="fill:#1b2f50;fill-opacity:1;fill-rule:nonzero;stroke:none"
       transform="matrix(1.3333333,0,0,-1.3333333,8405.9797,180.92933)"
       clip-path="url(#clipPath14)" />
    <path
       id="path15"
       d="m 0,0 c 29.751,29.632 61.152,66.947 92.627,93.729 8.727,7.426 13.408,10.728 25.56,6.146 16.328,-6.156 45.296,-50.829 60.057,-63.748 2.451,-4.138 2.004,-9.397 -0.391,-13.439 -87.041,-90.36 -177.441,-177.881 -267.071,-265.566 -20.595,-20.148 -44.143,-48.328 -65.711,-65.836 -10.684,-8.674 -16.474,-8.656 -27.14,0 l -193.453,193.451 c -5.327,5.857 -6.63,16.108 -1.906,22.6 21.521,18.741 40.871,44.559 62.52,62.579 10.895,9.068 18.62,9.015 29.722,-0.002 36.955,-34.62 71.913,-79.106 110.22,-111.604 3.871,-3.284 10.239,-8.849 15.195,-9.415 13.191,-1.507 37.453,29.815 46.694,39.13 C -75.711,-74.315 -37.573,-37.422 0,0"
       style="fill:#1b2f50;fill-opacity:1;fill-rule:nonzero;stroke:none"
       transform="matrix(1.3333333,0,0,-1.3333333,8627.5596,539.21107)"
       clip-path="url(#clipPath16)" />
    <path
       id="path17"
       d="m 0,0 c -0.216,0.126 -1.012,2.659 -2.026,3.71 -54.348,56.357 -145.315,79.861 -221.695,68.13 -72.555,-11.143 -128.881,-46.55 -174.916,-102.365 -117.608,-142.594 -43.035,-367.034 132.52,-416.806 113.594,-32.204 209.023,-4.247 287.25,82.155 53.615,59.218 77.446,146.726 59.953,225.052 0.463,2.527 14.054,16.355 15.469,14.84 16.043,-65.162 5.841,-132.859 -21.314,-193.404 -36.108,-80.507 -143.607,-155.591 -232.049,-160.015 -159.635,-7.985 -288.716,89.134 -312.402,248.714 -17.046,114.837 39.579,227.119 138.49,285.019 91.096,53.324 197.675,49.923 288.862,-0.821 C -34.567,50.151 15.294,16.303 15.289,12.073 12.155,9.902 3.731,-2.182 0,0"
       style="fill:#1b2f50;fill-opacity:1;fill-rule:nonzero;stroke:none"
       transform="matrix(1.3333333,0,0,-1.3333333,8693.7217,426.08413)"
       clip-path="url(#clipPath18)" />
    <text
       id="text18"
       xml:space="preserve"
       transform="matrix(0.39986473,1.2719615,-1.2719615,0.39986473,8842.3049,547.90973)"><tspan
         style="font-variant:normal;font-weight:normal;font-stretch:normal;font-size:61.9046px;font-family:'Old English Text MT';writing-mode:lr-tb;fill:#1b2f50;fill-opacity:1;fill-rule:nonzero;stroke:none"
         x="0"
         y="0"
         id="tspan18">5</tspan></text>
    <text
       id="text19"
       xml:space="preserve"
       transform="matrix(0.2703643,1.3056343,-1.3056343,0.2703643,8854.5636,586.65773)"><tspan
         style="font-variant:normal;font-weight:normal;font-stretch:normal;font-size:61.9046px;font-family:'Old English Text MT';writing-mode:lr-tb;fill:#1b2f50;fill-opacity:1;fill-rule:nonzero;stroke:none"
         x="0"
         y="0"
         id="tspan19">1</tspan></text>
    <text
       id="text20"
       xml:space="preserve"
       transform="matrix(0.14502087,1.3254232,-1.3254232,0.14502087,8862.7712,626.55587)"><tspan
         style="font-variant:normal;font-weight:normal;font-stretch:normal;font-size:61.9047px;font-family:'Old English Text MT';writing-mode:lr-tb;fill:#1b2f50;fill-opacity:1;fill-rule:nonzero;stroke:none"
         x="0"
         y="0"
         id="tspan20">b</tspan></text>
    <text
       id="text21"
       xml:space="preserve"
       transform="matrix(0.02586559,1.3330824,-1.3330824,0.02586559,8866.7149,662.07373)"><tspan
         style="font-variant:normal;font-weight:normal;font-stretch:normal;font-size:61.9046px;font-family:'Old English Text MT';writing-mode:lr-tb;fill:#1b2f50;fill-opacity:1;fill-rule:nonzero;stroke:none"
         x="0"
         y="0"
         id="tspan21">b</tspan></text>
    <text
       id="text22"
       xml:space="preserve"
       transform="matrix(-0.09365164,1.3300403,-1.3300403,-0.09365164,8867.4625,697.81307)"><tspan
         style="font-variant:normal;font-weight:normal;font-stretch:normal;font-size:61.9046px;font-family:'Old English Text MT';writing-mode:lr-tb;fill:#1b2f50;fill-opacity:1;fill-rule:nonzero;stroke:none"
         x="0"
         y="0"
         id="tspan22">b</tspan></text>
    <text
       id="text23"
       xml:space="preserve"
       transform="matrix(-0.21187448,1.3163917,-1.3163917,-0.21187448,8865.0071,733.47413)"><tspan
         style="font-variant:normal;font-weight:normal;font-stretch:normal;font-size:61.9046px;font-family:'Old English Text MT';writing-mode:lr-tb;fill:#1b2f50;fill-opacity:1;fill-rule:nonzero;stroke:none"
         x="0"
         y="0"
         id="tspan23">b</tspan></text>
    <text
       id="text24"
       xml:space="preserve"
       transform="matrix(-0.34488965,1.2879553,-1.2879553,-0.34488965,8859.7005,768.64827)"><tspan
         style="font-variant:normal;font-weight:normal;font-stretch:normal;font-size:61.9046px;font-family:'Old English Text MT';writing-mode:lr-tb;fill:#1b2f50;fill-opacity:1;fill-rule:nonzero;stroke:none"
         x="0"
         y="0"
         id="tspan24">7</tspan></text>
    <text
       id="text25"
       xml:space="preserve"
       transform="matrix(-0.46274381,1.2504583,-1.2504583,-0.46274381,8849.3825,808.0776)"><tspan
         style="font-variant:normal;font-weight:normal;font-stretch:normal;font-size:61.9047px;font-family:'Old English Text MT';writing-mode:lr-tb;fill:#1b2f50;fill-opacity:1;fill-rule:nonzero;stroke:none"
         x="0"
         y="0"
         id="tspan25">0</tspan></text>
    <text
       id="text26"
       xml:space="preserve"
       transform="matrix(-0.57999987,1.200574,-1.200574,-0.57999987,8835.1927,846.26013)"><tspan
         style="font-variant:normal;font-weight:normal;font-stretch:normal;font-size:61.9046px;font-family:'Old English Text MT';writing-mode:lr-tb;fill:#1b2f50;fill-opacity:1;fill-rule:nonzero;stroke:none"
         x="0"
         y="0"
         id="tspan26">d</tspan></text>
    <text
       id="text27"
       xml:space="preserve"
       transform="matrix(-0.68519598,1.1438025,-1.1438025,-0.68519598,8819.7021,878.4588)"><tspan
         style="font-variant:normal;font-weight:normal;font-stretch:normal;font-size:61.9046px;font-family:'Old English Text MT';writing-mode:lr-tb;fill:#1b2f50;fill-opacity:1;fill-rule:nonzero;stroke:none"
         x="0"
         y="0"
         id="tspan27">b</tspan></text>
    <text
       id="text28"
       xml:space="preserve"
       transform="matrix(-0.7912857,1.0731471,-1.0731471,-0.7912857,8801.5203,909.1664)"><tspan
         style="font-variant:normal;font-weight:normal;font-stretch:normal;font-size:61.9047px;font-family:'Old English Text MT';writing-mode:lr-tb;fill:#1b2f50;fill-opacity:1;fill-rule:nonzero;stroke:none"
         x="0"
         y="0"
         id="tspan28">5</tspan></text>
    <text
       id="text29"
       xml:space="preserve"
       transform="matrix(-0.87807842,1.0033723,-1.0033723,-0.87807842,8777.0541,941.91413)"><tspan
         style="font-variant:normal;font-weight:normal;font-stretch:normal;font-size:61.9046px;font-family:'Old English Text MT';writing-mode:lr-tb;fill:#1b2f50;fill-opacity:1;fill-rule:nonzero;stroke:none"
         x="0"
         y="0"
         id="tspan29">c</tspan></text>
    <text
       id="text30"
       xml:space="preserve"
       transform="matrix(-0.95817758,0.9271858,-0.9271858,-0.95817758,8759.9732,961.9616)"><tspan
         style="font-variant:normal;font-weight:normal;font-stretch:normal;font-size:61.9046px;font-family:'Old English Text MT';writing-mode:lr-tb;fill:#1b2f50;fill-opacity:1;fill-rule:nonzero;stroke:none"
         x="0"
         y="0"
         id="tspan30">8</tspan></text>
    <text
       id="text31"
       xml:space="preserve"
       transform="matrix(-1.0361726,0.83912105,-0.83912105,-1.0361726,8730.5569,990.21267)"><tspan
         style="font-variant:normal;font-weight:normal;font-stretch:normal;font-size:61.9046px;font-family:'Old English Text MT';writing-mode:lr-tb;fill:#1b2f50;fill-opacity:1;fill-rule:nonzero;stroke:none"
         x="0"
         y="0"
         id="tspan31">e</tspan></text>
    <text
       id="text32"
       xml:space="preserve"
       transform="matrix(-1.1012246,0.75171942,-0.75171942,-1.1012246,8706.1172,1010.178)"
       style="display:inline"><tspan
         style="font-variant:normal;font-weight:normal;font-stretch:normal;font-size:61.9047px;font-family:'Old English Text MT';writing-mode:lr-tb;fill:#1b2f50;fill-opacity:1;fill-rule:nonzero;stroke:none"
         x="0"
         y="0"
         id="tspan32">d</tspan></text>
    <text
       id="text33"
       xml:space="preserve"
       transform="matrix(-1.1656465,0.64733755,-0.64733755,-1.1656465,8676.7225,1030.4532)"><tspan
         style="font-variant:normal;font-weight:normal;font-stretch:normal;font-size:61.9046px;font-family:'Old English Text MT';writing-mode:lr-tb;fill:#1b2f50;fill-opacity:1;fill-rule:nonzero;stroke:none"
         x="0"
         y="0"
         id="tspan33">8</tspan></text>
    <text
       id="text34"
       xml:space="preserve"
       transform="matrix(-1.2230676,0.53092693,-0.53092693,-1.2230676,8641.1605,1050.2773)"><tspan
         style="font-variant:normal;font-weight:normal;font-stretch:normal;font-size:61.9046px;font-family:'Old English Text MT';writing-mode:lr-tb;fill:#1b2f50;fill-opacity:1;fill-rule:nonzero;stroke:none"
         x="0"
         y="0"
         id="tspan34">5</tspan></text>
    <text
       id="text35"
       xml:space="preserve"
       transform="matrix(-1.2663058,0.41742951,-0.41742951,-1.2663058,8603.7467,1066.4559)"><tspan
         style="font-variant:normal;font-weight:normal;font-stretch:normal;font-size:61.9046px;font-family:'Old English Text MT';writing-mode:lr-tb;fill:#1b2f50;fill-opacity:1;fill-rule:nonzero;stroke:none"
         x="0"
         y="0"
         id="tspan35">b</tspan></text>
    <text
       id="text36"
       xml:space="preserve"
       transform="matrix(-1.2956931,0.31457448,-0.31457448,-1.2956931,8569.6631,1077.6471)"><tspan
         style="font-variant:normal;font-weight:normal;font-stretch:normal;font-size:61.9046px;font-family:'Old English Text MT';writing-mode:lr-tb;fill:#1b2f50;fill-opacity:1;fill-rule:nonzero;stroke:none"
         x="0"
         y="0"
         id="tspan36">e</tspan></text>
    <text
       id="text37"
       xml:space="preserve"
       transform="matrix(-1.3167128,0.20986929,-0.20986929,-1.3167128,8539.0349,1085.2187)"><tspan
         style="font-variant:normal;font-weight:normal;font-stretch:normal;font-size:61.9046px;font-family:'Old English Text MT';writing-mode:lr-tb;fill:#1b2f50;fill-opacity:1;fill-rule:nonzero;stroke:none"
         x="0"
         y="0"
         id="tspan37">a</tspan></text>
    <text
       id="text38"
       xml:space="preserve"
       transform="matrix(-1.3292728,0.10397931,-0.10397931,-1.3292728,8503.63,1090.82)"><tspan
         style="font-variant:normal;font-weight:normal;font-stretch:normal;font-size:61.9046px;font-family:'Old English Text MT';writing-mode:lr-tb;fill:#1b2f50;fill-opacity:1;fill-rule:nonzero;stroke:none"
         x="0"
         y="0"
         id="tspan38">e</tspan></text>
    <text
       id="text39"
       xml:space="preserve"
       transform="matrix(-1.3332942,-0.01022002,0.01022002,-1.3332942,8472.2273,1093.5285)"><tspan
         style="font-variant:normal;font-weight:normal;font-stretch:normal;font-size:61.9046px;font-family:'Old English Text MT';writing-mode:lr-tb;fill:#1b2f50;fill-opacity:1;fill-rule:nonzero;stroke:none"
         x="0"
         y="0"
         id="tspan39">4</tspan></text>
    <text
       id="text40"
       xml:space="preserve"
       transform="matrix(-1.3269659,-0.13015074,0.13015074,-1.3269659,8431.4243,1093.1561)"><tspan
         style="font-variant:normal;font-weight:normal;font-stretch:normal;font-size:61.9046px;font-family:'Old English Text MT';writing-mode:lr-tb;fill:#1b2f50;fill-opacity:1;fill-rule:nonzero;stroke:none"
         x="0"
         y="0"
         id="tspan40">d</tspan></text>
    <text
       id="text41"
       xml:space="preserve"
       transform="matrix(-1.3114921,-0.24034596,0.24034596,-1.3114921,8395.7847,1089.7075)"><tspan
         style="font-variant:normal;font-weight:normal;font-stretch:normal;font-size:61.9047px;font-family:'Old English Text MT';writing-mode:lr-tb;fill:#1b2f50;fill-opacity:1;fill-rule:nonzero;stroke:none"
         x="0"
         y="0"
         id="tspan41">b</tspan></text>
    <text
       id="text42"
       xml:space="preserve"
       transform="matrix(-1.2872714,-0.34743362,0.34743362,-1.2872714,8360.5504,1083.2967)"><tspan
         style="font-variant:normal;font-weight:normal;font-stretch:normal;font-size:61.9046px;font-family:'Old English Text MT';writing-mode:lr-tb;fill:#1b2f50;fill-opacity:1;fill-rule:nonzero;stroke:none"
         x="0"
         y="0"
         id="tspan42">d</tspan></text>
    <text
       id="text43"
       xml:space="preserve"
       transform="matrix(-1.2514513,-0.46005153,0.46005153,-1.2514513,8325.9864,1074.1464)"><tspan
         style="font-variant:normal;font-weight:normal;font-stretch:normal;font-size:61.9047px;font-family:'Old English Text MT';writing-mode:lr-tb;fill:#1b2f50;fill-opacity:1;fill-rule:nonzero;stroke:none"
         x="0"
         y="0"
         id="tspan43">2</tspan></text>
    <text
       id="text44"
       xml:space="preserve"
       transform="matrix(-1.2018646,-0.57732071,0.57732071,-1.2018646,8287.7339,1060.1559)"><tspan
         style="font-variant:normal;font-weight:normal;font-stretch:normal;font-size:61.9046px;font-family:'Old English Text MT';writing-mode:lr-tb;fill:#1b2f50;fill-opacity:1;fill-rule:nonzero;stroke:none"
         x="0"
         y="0"
         id="tspan44">9</tspan></text>
    <text
       id="text45"
       xml:space="preserve"
       transform="matrix(-1.1407526,-0.69026178,0.69026178,-1.1407526,8250.9639,1042.5665)"><tspan
         style="font-variant:normal;font-weight:normal;font-stretch:normal;font-size:61.9046px;font-family:'Old English Text MT';writing-mode:lr-tb;fill:#1b2f50;fill-opacity:1;fill-rule:nonzero;stroke:none"
         x="0"
         y="0"
         id="tspan45">5</tspan></text>
    <text
       id="text46"
       xml:space="preserve"
       transform="matrix(-1.0821039,-0.77899228,0.77899228,-1.0821039,8216.0911,1021.18)"><tspan
         style="font-variant:normal;font-weight:normal;font-stretch:normal;font-size:61.9046px;font-family:'Old English Text MT';writing-mode:lr-tb;fill:#1b2f50;fill-opacity:1;fill-rule:nonzero;stroke:none"
         x="0"
         y="0"
         id="tspan46">c</tspan></text>
    <text
       id="text47"
       xml:space="preserve"
       transform="matrix(-1.0213949,-0.85704743,0.85704743,-1.0213949,8194.4891,1005.8928)"><tspan
         style="font-variant:normal;font-weight:normal;font-stretch:normal;font-size:61.9046px;font-family:'Old English Text MT';writing-mode:lr-tb;fill:#1b2f50;fill-opacity:1;fill-rule:nonzero;stroke:none"
         x="0"
         y="0"
         id="tspan47">b</tspan></text>
    <text
       id="text48"
       xml:space="preserve"
       transform="matrix(-0.94480462,-0.94080923,0.94080923,-0.94480462,8167.0347,982.92227)"><tspan
         style="font-variant:normal;font-weight:normal;font-stretch:normal;font-size:61.9046px;font-family:'Old English Text MT';writing-mode:lr-tb;fill:#1b2f50;fill-opacity:1;fill-rule:nonzero;stroke:none"
         x="0"
         y="0"
         id="tspan48">a</tspan></text>
    <text
       id="text49"
       xml:space="preserve"
       transform="matrix(-0.85529868,-1.0228597,1.0228597,-0.85529868,8141.6065,957.8492)"><tspan
         style="font-variant:normal;font-weight:normal;font-stretch:normal;font-size:61.9046px;font-family:'Old English Text MT';writing-mode:lr-tb;fill:#1b2f50;fill-opacity:1;fill-rule:nonzero;stroke:none"
         x="0"
         y="0"
         id="tspan49">6</tspan></text>
    <text
       id="text50"
       xml:space="preserve"
       transform="matrix(-0.75844849,-1.096601,1.096601,-0.75844849,8115.502,926.54507)"><tspan
         style="font-variant:normal;font-weight:normal;font-stretch:normal;font-size:61.9046px;font-family:'Old English Text MT';writing-mode:lr-tb;fill:#1b2f50;fill-opacity:1;fill-rule:nonzero;stroke:none"
         x="0"
         y="0"
         id="tspan50">a</tspan></text>
    <text
       id="text51"
       xml:space="preserve"
       transform="matrix(-0.66726702,-1.1543537,1.1543537,-0.66726702,8095.1233,897.01107)"><tspan
         style="font-variant:normal;font-weight:normal;font-stretch:normal;font-size:61.9047px;font-family:'Old English Text MT';writing-mode:lr-tb;fill:#1b2f50;fill-opacity:1;fill-rule:nonzero;stroke:none"
         x="0"
         y="0"
         id="tspan51">e</tspan></text>
    <text
       id="text52"
       xml:space="preserve"
       transform="matrix(-0.57125542,-1.2047593,1.2047593,-0.57125542,8079.2293,869.78373)"><tspan
         style="font-variant:normal;font-weight:normal;font-stretch:normal;font-size:61.9046px;font-family:'Old English Text MT';writing-mode:lr-tb;fill:#1b2f50;fill-opacity:1;fill-rule:nonzero;stroke:none"
         x="0"
         y="0"
         id="tspan52">b</tspan></text>
    <text
       id="text53"
       xml:space="preserve"
       transform="matrix(-0.45685099,-1.2526232,1.2526232,-0.45685099,8063.7763,837.62067)"><tspan
         style="font-variant:normal;font-weight:normal;font-stretch:normal;font-size:61.9046px;font-family:'Old English Text MT';writing-mode:lr-tb;fill:#1b2f50;fill-opacity:1;fill-rule:nonzero;stroke:none"
         x="0"
         y="0"
         id="tspan53">0</tspan></text>
    <text
       id="text54"
       xml:space="preserve"
       transform="matrix(-0.32944253,-1.2919928,1.2919928,-0.32944253,8049.7644,799.416)"><tspan
         style="font-variant:normal;font-weight:normal;font-stretch:normal;font-size:61.9046px;font-family:'Old English Text MT';writing-mode:lr-tb;fill:#1b2f50;fill-opacity:1;fill-rule:nonzero;stroke:none"
         x="0"
         y="0"
         id="tspan54">6</tspan></text>
    <text
       id="text55"
       xml:space="preserve"
       transform="matrix(-0.20558938,-1.3173879,1.3173879,-0.20558938,8039.7495,759.9236)"><tspan
         style="font-variant:normal;font-weight:normal;font-stretch:normal;font-size:61.9046px;font-family:'Old English Text MT';writing-mode:lr-tb;fill:#1b2f50;fill-opacity:1;fill-rule:nonzero;stroke:none"
         x="0"
         y="0"
         id="tspan55">a</tspan></text>
    <text
       id="text56"
       xml:space="preserve"
       transform="matrix(-0.09424817,-1.3299981,1.3299981,-0.09424817,8034.2732,724.5768)"><tspan
         style="font-variant:normal;font-weight:normal;font-stretch:normal;font-size:61.9046px;font-family:'Old English Text MT';writing-mode:lr-tb;fill:#1b2f50;fill-opacity:1;fill-rule:nonzero;stroke:none"
         x="0"
         y="0"
         id="tspan56">e</tspan></text>
    <text
       id="text57"
       xml:space="preserve"
       transform="matrix(0.02652251,-1.3330695,1.3330695,0.02652251,8031.7829,693.24027)"><tspan
         style="font-variant:normal;font-weight:normal;font-stretch:normal;font-size:61.9046px;font-family:'Old English Text MT';writing-mode:lr-tb;fill:#1b2f50;fill-opacity:1;fill-rule:nonzero;stroke:none"
         x="0"
         y="0"
         id="tspan57">1</tspan></text>
    <text
       id="text58"
       xml:space="preserve"
       transform="matrix(0.16181253,-1.3234782,1.3234782,0.16181253,8032.5192,652.61933)"><tspan
         style="font-variant:normal;font-weight:normal;font-stretch:normal;font-size:61.9046px;font-family:'Old English Text MT';writing-mode:lr-tb;fill:#1b2f50;fill-opacity:1;fill-rule:nonzero;stroke:none"
         x="0"
         y="0"
         id="tspan58">5</tspan></text>
    <text
       id="text59"
       xml:space="preserve"
       transform="matrix(0.29432813,-1.3004417,1.3004417,0.29432813,8037.3903,612.22587)"><tspan
         style="font-variant:normal;font-weight:normal;font-stretch:normal;font-size:61.9046px;font-family:'Old English Text MT';writing-mode:lr-tb;fill:#1b2f50;fill-opacity:1;fill-rule:nonzero;stroke:none"
         x="0"
         y="0"
         id="tspan59">8</tspan></text>
    <text
       id="text60"
       xml:space="preserve"
       transform="matrix(0.42289165,-1.2644922,1.2644922,0.42289165,8046.2901,572.56333)"><tspan
         style="font-variant:normal;font-weight:normal;font-stretch:normal;font-size:61.9046px;font-family:'Old English Text MT';writing-mode:lr-tb;fill:#1b2f50;fill-opacity:1;fill-rule:nonzero;stroke:none"
         x="0"
         y="0"
         id="tspan60">9</tspan></text>
    <text
       id="text61"
       xml:space="preserve"
       transform="matrix(0.54891947,-1.2150988,1.2150988,0.54891947,8059.1243,533.95733)"><tspan
         style="font-variant:normal;font-weight:normal;font-stretch:normal;font-size:61.9046px;font-family:'Old English Text MT';writing-mode:lr-tb;fill:#1b2f50;fill-opacity:1;fill-rule:nonzero;stroke:none"
         x="0"
         y="0"
         id="tspan61">8</tspan></text>
    <text
       id="text62"
       xml:space="preserve"
       transform="matrix(0.66974035,-1.1529205,1.1529205,0.66974035,8075.7835,496.8976)"><tspan
         style="font-variant:normal;font-weight:normal;font-stretch:normal;font-size:61.9046px;font-family:'Old English Text MT';writing-mode:lr-tb;fill:#1b2f50;fill-opacity:1;fill-rule:nonzero;stroke:none"
         x="0"
         y="0"
         id="tspan62">6</tspan></text>
    <text
       id="text63"
       xml:space="preserve"
       transform="matrix(0.78341869,-1.0789036,1.0789036,0.78341869,8096.1453,461.70733)"><tspan
         style="font-variant:normal;font-weight:normal;font-stretch:normal;font-size:61.9046px;font-family:'Old English Text MT';writing-mode:lr-tb;fill:#1b2f50;fill-opacity:1;fill-rule:nonzero;stroke:none"
         x="0"
         y="0"
         id="tspan63">1</tspan></text>
    <text
       id="text64"
       xml:space="preserve"
       transform="matrix(0.88223071,-0.99972334,0.99972334,0.88223071,8120.1285,428.77573)"><tspan
         style="font-variant:normal;font-weight:normal;font-stretch:normal;font-size:61.9046px;font-family:'Old English Text MT';writing-mode:lr-tb;fill:#1b2f50;fill-opacity:1;fill-rule:nonzero;stroke:none"
         x="0"
         y="0"
         id="tspan64">a</tspan></text>
    <text
       id="text65"
       xml:space="preserve"
       transform="matrix(0.97225961,-0.91240837,0.91240837,0.97225961,8143.5879,401.92133)"><tspan
         style="font-variant:normal;font-weight:normal;font-stretch:normal;font-size:61.9046px;font-family:'Old English Text MT';writing-mode:lr-tb;fill:#1b2f50;fill-opacity:1;fill-rule:nonzero;stroke:none"
         x="0"
         y="0"
         id="tspan65">6</tspan></text>
    <text
       id="text66"
       xml:space="preserve"
       transform="matrix(1.0579177,-0.81153436,0.81153436,1.0579177,8173.2257,374.01893)"><tspan
         style="font-variant:normal;font-weight:normal;font-stretch:normal;font-size:61.9046px;font-family:'Old English Text MT';writing-mode:lr-tb;fill:#1b2f50;fill-opacity:1;fill-rule:nonzero;stroke:none"
         x="0"
         y="0"
         id="tspan66">8</tspan></text>
    <text
       id="text67"
       xml:space="preserve"
       transform="matrix(1.1324843,-0.70374509,0.70374509,1.1324843,8205.478,349.19773)"><tspan
         style="font-variant:normal;font-weight:normal;font-stretch:normal;font-size:61.9046px;font-family:'Old English Text MT';writing-mode:lr-tb;fill:#1b2f50;fill-opacity:1;fill-rule:nonzero;stroke:none"
         x="0"
         y="0"
         id="tspan67">1</tspan></text>
    <text
       id="text68"
       xml:space="preserve"
       transform="matrix(1.1956729,-0.59003735,0.59003735,1.1956729,8240.0044,327.66453)"><tspan
         style="font-variant:normal;font-weight:normal;font-stretch:normal;font-size:61.9046px;font-family:'Old English Text MT';writing-mode:lr-tb;fill:#1b2f50;fill-opacity:1;fill-rule:nonzero;stroke:none"
         x="0"
         y="0"
         id="tspan68">9</tspan></text>
    <text
       id="text69"
       xml:space="preserve"
       transform="matrix(1.247288,-0.47122225,0.47122225,1.247288,8276.4861,309.5884)"><tspan
         style="font-variant:normal;font-weight:normal;font-stretch:normal;font-size:61.9045px;font-family:'Old English Text MT';writing-mode:lr-tb;fill:#1b2f50;fill-opacity:1;fill-rule:nonzero;stroke:none"
         x="0"
         y="0"
         id="tspan69">3</tspan></text>
    <text
       id="text70"
       xml:space="preserve"
       transform="matrix(1.2870188,-0.34836822,0.34836822,1.2870188,8314.5345,295.1448)"><tspan
         style="font-variant:normal;font-weight:normal;font-stretch:normal;font-size:61.9046px;font-family:'Old English Text MT';writing-mode:lr-tb;fill:#1b2f50;fill-opacity:1;fill-rule:nonzero;stroke:none"
         x="0"
         y="0"
         id="tspan70">2</tspan></text>
    <text
       id="text71"
       xml:space="preserve"
       transform="matrix(1.3146605,-0.22236383,0.22236383,1.3146605,8353.8172,284.44387)"><tspan
         style="font-variant:normal;font-weight:normal;font-stretch:normal;font-size:61.9046px;font-family:'Old English Text MT';writing-mode:lr-tb;fill:#1b2f50;fill-opacity:1;fill-rule:nonzero;stroke:none"
         x="0"
         y="0"
         id="tspan71">5</tspan></text>
    <text
       id="text72"
       xml:space="preserve"
       transform="matrix(1.3294099,-0.1022111,0.1022111,1.3294099,8394.0464,277.69747)"><tspan
         style="font-variant:normal;font-weight:normal;font-stretch:normal;font-size:61.9046px;font-family:'Old English Text MT';writing-mode:lr-tb;fill:#1b2f50;fill-opacity:1;fill-rule:nonzero;stroke:none"
         x="0"
         y="0"
         id="tspan72">a</tspan></text>
    <text
       id="text73"
       xml:space="preserve"
       transform="matrix(1.3332901,0.0107348,-0.0107348,1.3332901,8429.7455,274.9024)"><tspan
         style="font-variant:normal;font-weight:normal;font-stretch:normal;font-size:61.9046px;font-family:'Old English Text MT';writing-mode:lr-tb;fill:#1b2f50;fill-opacity:1;fill-rule:nonzero;stroke:none"
         x="0"
         y="0"
         id="tspan73">d</tspan></text>
    <text
       id="text74"
       xml:space="preserve"
       transform="matrix(1.3282342,0.11649745,-0.11649745,1.3282342,8465.6141,275.234)"><tspan
         style="font-variant:normal;font-weight:normal;font-stretch:normal;font-size:61.9046px;font-family:'Old English Text MT';writing-mode:lr-tb;fill:#1b2f50;fill-opacity:1;fill-rule:nonzero;stroke:none"
         x="0"
         y="0"
         id="tspan74">e</tspan></text>
    <text
       id="text75"
       xml:space="preserve"
       transform="matrix(1.313664,0.22817684,-0.22817684,1.313664,8497.0207,277.74227)"><tspan
         style="font-variant:normal;font-weight:normal;font-stretch:normal;font-size:61.9046px;font-family:'Old English Text MT';writing-mode:lr-tb;fill:#1b2f50;fill-opacity:1;fill-rule:nonzero;stroke:none"
         x="0"
         y="0"
         id="tspan75">9</tspan></text>
    <text
       id="text76"
       xml:space="preserve"
       transform="matrix(1.2865288,0.35017344,-0.35017344,1.2865288,8537.1753,284.658)"><tspan
         style="font-variant:normal;font-weight:normal;font-stretch:normal;font-size:61.9046px;font-family:'Old English Text MT';writing-mode:lr-tb;fill:#1b2f50;fill-opacity:1;fill-rule:nonzero;stroke:none"
         x="0"
         y="0"
         id="tspan76">6</tspan></text>
    <text
       id="text77"
       xml:space="preserve"
       transform="matrix(1.2477773,0.46992497,-0.46992497,1.2477773,8576.5135,295.29547)"><tspan
         style="font-variant:normal;font-weight:normal;font-stretch:normal;font-size:61.9046px;font-family:'Old English Text MT';writing-mode:lr-tb;fill:#1b2f50;fill-opacity:1;fill-rule:nonzero;stroke:none"
         x="0"
         y="0"
         id="tspan77">4</tspan></text>
    <text
       id="text78"
       xml:space="preserve"
       transform="matrix(1.1971797,0.58697411,-0.58697411,1.1971797,8614.6773,309.59747)"><tspan
         style="font-variant:normal;font-weight:normal;font-stretch:normal;font-size:61.9046px;font-family:'Old English Text MT';writing-mode:lr-tb;fill:#1b2f50;fill-opacity:1;fill-rule:nonzero;stroke:none"
         x="0"
         y="0"
         id="tspan78">6</tspan></text>
    <text
       id="text79"
       xml:space="preserve"
       transform="matrix(1.1392409,0.69275395,-0.69275395,1.1392409,8651.2867,327.60907)"><tspan
         style="font-variant:normal;font-weight:normal;font-stretch:normal;font-size:61.9046px;font-family:'Old English Text MT';writing-mode:lr-tb;fill:#1b2f50;fill-opacity:1;fill-rule:nonzero;stroke:none"
         x="0"
         y="0"
         id="tspan79">a</tspan></text>
    <text
       id="text80"
       xml:space="preserve"
       transform="matrix(1.0718049,0.79310274,-0.79310274,1.0718049,8681.8735,346.00293)"><tspan
         style="font-variant:normal;font-weight:normal;font-stretch:normal;font-size:61.9045px;font-family:'Old English Text MT';writing-mode:lr-tb;fill:#1b2f50;fill-opacity:1;fill-rule:nonzero;stroke:none"
         x="0"
         y="0"
         id="tspan80">5</tspan></text>
    <text
       id="text81"
       xml:space="preserve"
       transform="matrix(0.99009687,0.8930207,-0.8930207,0.99009687,8714.6677,370.18933)"><tspan
         style="font-variant:normal;font-weight:normal;font-stretch:normal;font-size:61.9046px;font-family:'Old English Text MT';writing-mode:lr-tb;fill:#1b2f50;fill-opacity:1;fill-rule:nonzero;stroke:none"
         x="0"
         y="0"
         id="tspan81">0</tspan></text>
  </g>
</svg>
