<?xml version="1.0" encoding="UTF-8"?>
<svg width="7676.2" height="1365.3" version="1.1" viewBox="0 0 7676.2 1365.3" xmlns="http://www.w3.org/2000/svg" xmlns:cc="http://creativecommons.org/ns#" xmlns:dc="http://purl.org/dc/elements/1.1/" xmlns:rdf="http://www.w3.org/1999/02/22-rdf-syntax-ns#">
 <title>Encypher Logo - White</title>
 <defs>
  <clipPath id="a">
   <path transform="matrix(1 0 0 -1 -1094.6 190.86)" d="m0 1024h5757.1v-1024h-5757.1z"/>
  </clipPath>
  <clipPath id="e">
   <path transform="translate(-986.2 -512.35)" d="m0 1024h5757.1v-1024h-5757.1z"/>
  </clipPath>
  <clipPath id="d">
   <path transform="translate(-533.32 -888.64)" d="m0 1024h5757.1v-1024h-5757.1z"/>
  </clipPath>
  <clipPath id="c">
   <path transform="translate(-699.51 -619.93)" d="m0 1024h5757.1v-1024h-5757.1z"/>
  </clipPath>
  <clipPath id="b">
   <path transform="translate(-749.13 -704.78)" d="m0 1024h5757.1v-1024h-5757.1z"/>
  </clipPath>
 </defs>
 <g fill="#fff">
  <path transform="matrix(1.3333 0 0 1.3333 1459.5 1110.9)" d="m486.47-102.83v102.83h-340.58v-102.83zm-297.51-537.01v639.84h-131.84v-639.84zm253.12 260.6v100.2h-296.19v-100.2zm43.945-260.6v103.27h-340.14v-103.27zm596.75 0v639.84h-131.84l-257.08-428.91v428.91h-131.84v-639.84h131.84l257.52 429.35v-429.35zm483.75 427.59h131.4q-3.955 64.6-35.596 114.7-31.201 50.098-87.451 78.223-55.811 28.125-134.47 28.125-61.523 0-110.3-21.094-48.779-21.533-83.496-61.523-34.277-39.99-52.295-96.68-18.018-56.689-18.018-127v-44.385q0-70.312 18.457-127 18.896-57.129 53.613-97.119 35.156-39.99 83.936-61.523 48.779-21.533 108.98-21.533 79.98 0 134.91 29.004 55.371 29.004 85.693 79.98 30.762 50.977 36.914 116.02h-131.84q-2.1973-38.672-15.381-65.479-13.184-27.246-39.99-40.869-26.367-14.062-70.312-14.062-32.959 0-57.568 12.305-24.609 12.305-41.308 37.354-16.699 25.049-25.049 63.281-7.9101 37.793-7.9101 88.77v45.264q0 49.658 7.4707 87.451 7.4707 37.354 22.852 63.281 15.82 25.488 40.43 38.672 25.049 12.744 60.205 12.744 41.309 0 68.115-13.184 26.807-13.184 40.869-39.111 14.502-25.928 17.139-64.6zm306.49-427.59 133.59 291.8 133.59-291.8h143.7l-210.5 406.93v232.91h-133.59v-232.91l-210.94-406.93zm722.88 411.77h-163.04v-102.83h163.04q37.793 0 61.524-12.305 23.73-12.744 34.717-35.156 10.986-22.412 10.986-50.537 0-28.564-10.986-53.174-10.986-24.609-34.717-39.551-23.73-14.941-61.524-14.941h-117.33v536.57h-131.84v-639.84h249.17q75.146 0 128.76 27.246 54.053 26.807 82.617 74.268 28.564 47.461 28.564 108.54 0 61.963-28.564 107.23-28.564 45.264-82.617 69.873-53.613 24.609-128.76 24.609zm760.74-151.17v102.83h-333.98v-102.83zm-294.87-260.6v639.84h-131.84v-639.84zm388.92 0v639.84h-131.4v-639.84zm543.09 537.01v102.83h-340.58v-102.83zm-297.51-537.01v639.84h-131.84v-639.84zm253.12 260.6v100.2h-296.19v-100.2zm43.945-260.6v103.27h-340.14v-103.27zm75.994 0h238.62q73.389 0 126.12 21.973 53.174 21.973 81.738 65.039 28.564 43.066 28.564 105.91 0 51.416-17.578 88.33-17.139 36.475-48.779 61.084-31.201 24.17-73.389 38.672l-41.748 21.973h-207.42l-0.8789-102.83h154.25q34.717 0 57.568-12.305 22.852-12.305 34.277-34.277 11.865-21.973 11.865-50.977 0-30.762-11.426-53.174-11.426-22.412-34.717-34.277-23.291-11.865-58.447-11.865h-106.79v536.57h-131.84zm357.71 639.84-145.9-285.21 139.31-0.8789 147.66 279.93v6.1523z" clip-path="url(#a)" aria-label="ENCYPHER"/>
  <g>
   <path transform="matrix(1.3333 0 0 -1.3333 1314.9 682.2)" d="m0 0c0 232.57-188.54 421.11-421.11 421.11s-421.11-188.54-421.11-421.11 188.54-421.11 421.11-421.11 421.11 188.54 421.11 421.11m-67.453 353c23.979-23.981 10.797-65.451 27.768-92.817 18.974-30.597 65.954-33.172 79.076-65.368 14.116-34.633-21.882-73.283-3.03-116.52 10.61-24.334 35.503-38.081 41.775-65.268 10.148-43.987-31.227-59.51-43.878-94.207-15.204-41.698 18.268-74.005 5.128-109.59-10.999-29.792-41.748-34.508-64.249-51.817-35.197-27.075-17.661-69.425-38.048-103.82-23.241-39.214-88.417-7.654-119.92-50.318-15.57-21.086-19.66-51.992-47.602-62.02-37.141-13.33-73.918 26.168-115.13 8.091-25.387-11.134-41.467-42.977-71.635-41.973-40.694 1.354-55.371 38.519-90.549 46.161-35.155 7.637-70.921-23.265-105.13-10.989-29.976 10.755-32.05 49.686-54.486 68.033-46.355 37.908-104.62-4.252-121.47 74.566-4.219 19.744-3.26 41.357-14.786 58.725-18.598 28.025-60.437 30.204-75.202 61.504-17.044 36.132 21.018 75.308 2.157 118.23-9.922 22.582-34.649 37.243-40.879 61.005-14.493 55.272 39.927 66.145 45.429 111.92 3.779 31.436-14.077 58.522-11.085 85.886 3.876 35.449 42.672 41.122 65.628 60.762 35.771 30.604 19.345 55.434 33.486 91.613 19.578 50.093 74.036 25.042 109.57 50.348 25.488 18.151 33.168 62.191 60.342 73.785 35.996 15.359 70.975-19.554 106.45-12.299 28.968 5.924 48.503 41.024 76.508 44.721 48.251 6.372 61.706-38.856 102.1-45.992 33.437-5.906 59.88 20.108 92.391 16.301 38.545-4.512 40.264-55.377 66.904-74.961 30.814-22.653 78.673-9.989 102.37-33.689" clip-path="url(#e)"/>
   <path transform="matrix(1.3333 0 0 -1.3333 711.1 180.48)" d="m0 0c-83.528-5.076-162.36-38.8-224.16-94.394-158.02-142.14-166.46-385.3-21.94-540.43 165.41-177.56 446.28-154.97 588.66 38.19 84.213 114.25 95.688 274.84 27.221 399.72-72.681 132.57-219.63 206.04-369.79 196.91m5.205 23.285c138.61 6.866 266.82-50.89 351.52-159.74 99.699-128.14 109.35-314.95 19.648-451.42-112.41-171.02-304.47-231.07-498.03-162.38-32.852 11.659-77.116 41.147-104.93 62.729-96.585 74.95-157.63 226.56-144.42 347.92 6.569 60.365 23.33 122.49 56.048 173.52 71.625 111.71 185.88 182.73 320.16 189.38" clip-path="url(#d)"/>
   <path transform="matrix(1.3333 0 0 -1.3333 932.68 538.76)" d="m0 0c29.751 29.632 61.152 66.947 92.627 93.729 8.727 7.426 13.408 10.728 25.56 6.146 16.328-6.156 45.296-50.829 60.057-63.748 2.451-4.138 2.004-9.397-0.391-13.439-87.041-90.36-177.44-177.88-267.07-265.57-20.595-20.148-44.143-48.328-65.711-65.836-10.684-8.674-16.474-8.656-27.14 0l-193.45 193.45c-5.327 5.857-6.63 16.108-1.906 22.6 21.521 18.741 40.871 44.559 62.52 62.579 10.895 9.068 18.62 9.015 29.722-2e-3 36.955-34.62 71.913-79.106 110.22-111.6 3.871-3.284 10.239-8.849 15.195-9.415 13.191-1.507 37.453 29.815 46.694 39.13 37.366 37.66 75.504 74.553 113.08 111.98" clip-path="url(#c)"/>
   <path transform="matrix(1.3333 0 0 -1.3333 998.84 425.63)" d="m0 0c-0.216 0.126-1.012 2.659-2.026 3.71-54.348 56.357-145.32 79.861-221.7 68.13-72.555-11.143-128.88-46.55-174.92-102.36-117.61-142.59-43.035-367.03 132.52-416.81 113.59-32.204 209.02-4.247 287.25 82.155 53.615 59.218 77.446 146.73 59.953 225.05 0.463 2.527 14.054 16.355 15.468 14.84 16.044-65.162 5.842-132.86-21.313-193.4-36.108-80.507-143.61-155.59-232.05-160.02-159.64-7.985-288.72 89.134-312.4 248.71-17.045 114.84 39.58 227.12 138.49 285.02 91.096 53.324 197.68 49.923 288.86-0.821 7.291-4.058 57.152-37.906 57.147-42.136-3.134-2.171-11.558-14.255-15.289-12.073" clip-path="url(#b)"/>
  </g>
 </g>
 <text transform="matrix(1.3333 0 0 1.3333 1459.5 1110.9)" clip-path="url(#a)" display="none" fill="#ffffff" xml:space="preserve"><tspan x="0 504.89999 1138.5 1728 2289.6001 2872.8 3507.3 4012.2" y="0" fill="#ffffff" font-family="Roboto" font-size="900px" font-weight="bold">ENCYPHER</tspan></text>
 <metadata>
  <rdf:RDF>
   <cc:Work rdf:about="">
    <dc:title>Encypher Logo - White</dc:title>
   </cc:Work>
  </rdf:RDF>
 </metadata>
</svg>
