<?xml version="1.0" encoding="UTF-8" standalone="no"?>
<!-- Created with Inkscape (http://www.inkscape.org/) -->

<svg
   width="1000"
   height="1000"
   viewBox="0 0 264.58334 264.58333"
   version="1.1"
   id="svg1"
   inkscape:version="1.3.2 (091e20e, 2023-11-25, custom)"
   sodipodi:docname="encypher_check_white.svg"
   xmlns:inkscape="http://www.inkscape.org/namespaces/inkscape"
   xmlns:sodipodi="http://sodipodi.sourceforge.net/DTD/sodipodi-0.dtd"
   xmlns="http://www.w3.org/2000/svg"
   xmlns:svg="http://www.w3.org/2000/svg">
  <sodipodi:namedview
     id="namedview1"
     pagecolor="#ffffff"
     bordercolor="#000000"
     borderopacity="0.25"
     inkscape:showpageshadow="2"
     inkscape:pageopacity="0.0"
     inkscape:pagecheckerboard="0"
     inkscape:deskcolor="#d1d1d1"
     inkscape:document-units="mm"
     inkscape:zoom="0.73890575"
     inkscape:cx="632.69233"
     inkscape:cy="533.89759"
     inkscape:window-width="2560"
     inkscape:window-height="1369"
     inkscape:window-x="-8"
     inkscape:window-y="-8"
     inkscape:window-maximized="1"
     inkscape:current-layer="layer1" />
  <defs
     id="defs1">
    <clipPath
       clipPathUnits="userSpaceOnUse"
       id="clipPath3">
      <path
         d="M 0,1024 H 5757.143 V 0 H 0 Z"
         transform="translate(-986.19925,-512.35091)"
         id="path3" />
    </clipPath>
    <clipPath
       clipPathUnits="userSpaceOnUse"
       id="clipPath5">
      <path
         d="M 0,1024 H 5757.143 V 0 H 0 Z"
         transform="translate(-533.32231,-888.64122)"
         id="path5" />
    </clipPath>
    <clipPath
       clipPathUnits="userSpaceOnUse"
       id="clipPath7">
      <path
         d="M 0,1024 H 5757.143 V 0 H 0 Z"
         transform="translate(-699.50722,-619.92992)"
         id="path7" />
    </clipPath>
    <clipPath
       clipPathUnits="userSpaceOnUse"
       id="clipPath9">
      <path
         d="M 0,1024 H 5757.143 V 0 H 0 Z"
         transform="translate(-749.12882,-704.77502)"
         id="path9" />
    </clipPath>
  </defs>
  <g
     inkscape:label="Layer 1"
     inkscape:groupmode="layer"
     id="layer1"
     transform="translate(141.02291,94.720831)">
    <g
       id="g1"
       inkscape:label="White Check">
      <path
         id="path2"
         d="m 0,0 c 0,232.574 -188.539,421.113 -421.113,421.113 -232.574,0 -421.113,-188.539 -421.113,-421.113 0,-232.574 188.539,-421.113 421.113,-421.113 C -188.539,-421.113 0,-232.574 0,0 m -67.453,353 c 23.979,-23.981 10.797,-65.451 27.768,-92.817 18.974,-30.597 65.954,-33.172 79.076,-65.368 C 53.507,160.182 17.509,121.532 36.361,78.293 46.971,53.959 71.864,40.212 78.136,13.025 88.284,-30.962 46.909,-46.485 34.258,-81.182 c -15.204,-41.698 18.268,-74.005 5.128,-109.592 -10.999,-29.792 -41.748,-34.508 -64.249,-51.817 -35.197,-27.075 -17.661,-69.425 -38.048,-103.822 -23.241,-39.214 -88.417,-7.654 -119.92,-50.318 -15.57,-21.086 -19.66,-51.992 -47.602,-62.02 -37.141,-13.33 -73.918,26.168 -115.134,8.091 -25.387,-11.134 -41.467,-42.977 -71.635,-41.973 -40.694,1.354 -55.371,38.519 -90.549,46.161 -35.155,7.637 -70.921,-23.265 -105.134,-10.989 -29.976,10.755 -32.05,49.686 -54.486,68.033 -46.355,37.908 -104.624,-4.252 -121.466,74.566 -4.219,19.744 -3.26,41.357 -14.786,58.725 -18.598,28.025 -60.437,30.204 -75.202,61.504 -17.044,36.132 21.018,75.308 2.157,118.229 -9.922,22.582 -34.649,37.243 -40.879,61.005 -14.493,55.272 39.927,66.145 45.429,111.924 3.779,31.436 -14.077,58.522 -11.085,85.886 3.876,35.449 42.672,41.122 65.628,60.762 35.771,30.604 19.345,55.434 33.486,91.613 19.578,50.093 74.036,25.042 109.571,50.348 25.488,18.151 33.168,62.191 60.342,73.785 35.996,15.359 70.975,-19.554 106.446,-12.299 28.968,5.924 48.503,41.024 76.508,44.721 48.251,6.372 61.706,-38.856 102.102,-45.992 33.437,-5.906 59.88,20.108 92.391,16.301 38.545,-4.512 40.264,-55.377 66.904,-74.961 30.814,-22.653 78.673,-9.989 102.372,-33.689"
         style="fill:#ffffff;fill-opacity:1;fill-rule:nonzero;stroke:none"
         transform="matrix(0.26489337,0,0,-0.26868826,102.67706,37.461479)"
         clip-path="url(#clipPath3)" />
      <path
         id="path4"
         d="m 0,0 c -83.528,-5.076 -162.357,-38.8 -224.157,-94.394 -158.015,-142.145 -166.457,-385.295 -21.94,-540.428 165.409,-177.56 446.282,-154.97 588.662,38.19 84.213,114.248 95.688,274.838 27.221,399.718 C 297.105,-64.347 150.152,9.124 0,0 M 5.205,23.285 C 143.817,30.151 272.03,-27.605 356.728,-136.46 456.427,-264.595 466.08,-451.411 376.376,-587.884 263.962,-758.908 71.908,-818.956 -121.656,-750.26 c -32.852,11.659 -77.116,41.147 -104.929,62.729 -96.585,74.95 -157.627,226.56 -144.421,347.923 6.569,60.365 23.33,122.486 56.048,173.515 71.625,111.712 185.876,182.726 320.163,189.378"
         style="fill:#ffffff;fill-opacity:1;fill-rule:nonzero;stroke:none"
         transform="matrix(0.26489337,0,0,-0.26868826,-17.287041,-63.64331)"
         clip-path="url(#clipPath5)" />
      <path
         id="path6"
         d="m 0,0 c 29.751,29.632 61.152,66.947 92.627,93.729 8.727,7.426 13.408,10.728 25.56,6.146 16.328,-6.156 45.296,-50.829 60.057,-63.748 2.451,-4.138 2.004,-9.397 -0.391,-13.439 -87.041,-90.36 -177.441,-177.881 -267.071,-265.566 -20.595,-20.148 -44.143,-48.328 -65.711,-65.836 -10.684,-8.674 -16.474,-8.656 -27.14,0 l -193.453,193.451 c -5.327,5.857 -6.63,16.108 -1.906,22.6 21.521,18.741 40.871,44.559 62.52,62.579 10.895,9.068 18.62,9.015 29.722,-0.002 36.955,-34.62 71.913,-79.106 110.22,-111.604 3.871,-3.284 10.239,-8.849 15.195,-9.415 13.191,-1.507 37.453,29.815 46.694,39.13 C -75.711,-74.315 -37.573,-37.422 0,0"
         style="fill:#ffffff;fill-opacity:1;fill-rule:nonzero;stroke:none"
         transform="matrix(0.26489337,0,0,-0.26868826,26.73424,8.5562629)"
         clip-path="url(#clipPath7)" />
      <path
         id="path8"
         d="m 0,0 c -0.216,0.126 -1.012,2.659 -2.026,3.71 -54.348,56.357 -145.316,79.861 -221.695,68.13 -72.555,-11.143 -128.881,-46.55 -174.916,-102.365 -117.608,-142.594 -43.035,-367.034 132.52,-416.806 113.594,-32.204 209.023,-4.247 287.25,82.155 53.615,59.218 77.446,146.726 59.953,225.052 0.463,2.527 14.054,16.355 15.468,14.84 16.044,-65.162 5.842,-132.859 -21.313,-193.404 -36.108,-80.507 -143.607,-155.591 -232.049,-160.015 -159.635,-7.985 -288.716,89.134 -312.403,248.714 -17.045,114.837 39.58,227.12 138.491,285.019 91.096,53.324 197.675,49.923 288.862,-0.821 C -34.567,50.151 15.294,16.303 15.289,12.073 12.155,9.902 3.731,-2.182 0,0"
         style="fill:#ffffff;fill-opacity:1;fill-rule:nonzero;stroke:none"
         transform="matrix(0.26489337,0,0,-0.26868826,39.878672,-14.24062)"
         clip-path="url(#clipPath9)" />
    </g>
    <g
       id="g12"
       inkscape:label="Color Check"
       style="display:none">
      <path
         id="path1"
         d="m 0,0 c 0,232.574 -188.539,421.113 -421.113,421.113 -232.574,0 -421.113,-188.539 -421.113,-421.113 0,-232.574 188.539,-421.113 421.113,-421.113 C -188.539,-421.113 0,-232.574 0,0 m -67.453,353 c 23.979,-23.981 10.797,-65.451 27.768,-92.817 18.974,-30.597 65.954,-33.172 79.076,-65.368 C 53.507,160.182 17.509,121.532 36.361,78.293 46.971,53.959 71.864,40.212 78.136,13.025 88.284,-30.962 46.909,-46.485 34.258,-81.182 c -15.204,-41.698 18.268,-74.005 5.128,-109.592 -10.999,-29.792 -41.748,-34.508 -64.249,-51.817 -35.197,-27.075 -17.661,-69.425 -38.048,-103.822 -23.241,-39.214 -88.417,-7.654 -119.92,-50.318 -15.57,-21.086 -19.66,-51.992 -47.602,-62.02 -37.141,-13.33 -73.918,26.168 -115.134,8.091 -25.387,-11.134 -41.467,-42.977 -71.635,-41.973 -40.694,1.354 -55.371,38.519 -90.549,46.161 -35.155,7.637 -70.921,-23.265 -105.134,-10.989 -29.976,10.755 -32.05,49.686 -54.486,68.033 -46.355,37.908 -104.624,-4.252 -121.466,74.566 -4.219,19.744 -3.26,41.357 -14.786,58.725 -18.598,28.025 -60.437,30.204 -75.202,61.504 -17.044,36.132 21.018,75.308 2.157,118.229 -9.922,22.582 -34.649,37.243 -40.879,61.005 -14.493,55.272 39.927,66.145 45.429,111.924 3.779,31.436 -14.077,58.522 -11.085,85.886 3.876,35.449 42.672,41.122 65.628,60.762 35.771,30.604 19.345,55.434 33.486,91.613 19.578,50.093 74.036,25.042 109.571,50.348 25.488,18.151 33.168,62.191 60.342,73.785 35.996,15.359 70.975,-19.554 106.446,-12.299 28.968,5.924 48.503,41.024 76.508,44.721 48.251,6.372 61.706,-38.856 102.102,-45.992 33.437,-5.906 59.88,20.108 92.391,16.301 38.545,-4.512 40.264,-55.377 66.904,-74.961 30.814,-22.653 78.673,-9.989 102.372,-33.689"
         style="fill:#1b2f50;fill-opacity:1;fill-rule:nonzero;stroke:none"
         transform="matrix(0.26489337,0,0,-0.26868826,102.67706,37.461479)"
         clip-path="url(#clipPath3)" />
      <path
         id="path10"
         d="m 0,0 c -83.528,-5.076 -162.357,-38.8 -224.157,-94.394 -158.015,-142.145 -166.457,-385.295 -21.94,-540.428 165.409,-177.56 446.282,-154.97 588.662,38.19 84.213,114.248 95.688,274.838 27.221,399.718 C 297.105,-64.347 150.152,9.124 0,0 M 5.205,23.285 C 143.817,30.151 272.03,-27.605 356.728,-136.46 456.427,-264.595 466.08,-451.411 376.376,-587.884 263.962,-758.908 71.908,-818.956 -121.656,-750.26 c -32.852,11.659 -77.116,41.147 -104.929,62.729 -96.585,74.95 -157.627,226.56 -144.421,347.923 6.569,60.365 23.33,122.486 56.048,173.515 71.625,111.712 185.876,182.726 320.163,189.378"
         style="fill:#1b2f50;fill-opacity:1;fill-rule:nonzero;stroke:none"
         transform="matrix(0.26489337,0,0,-0.26868826,-17.287041,-63.64331)"
         clip-path="url(#clipPath5)" />
      <path
         id="path11"
         d="m 0,0 c 29.751,29.632 61.152,66.947 92.627,93.729 8.727,7.426 13.408,10.728 25.56,6.146 16.328,-6.156 45.296,-50.829 60.057,-63.748 2.451,-4.138 2.004,-9.397 -0.391,-13.439 -87.041,-90.36 -177.441,-177.881 -267.071,-265.566 -20.595,-20.148 -44.143,-48.328 -65.711,-65.836 -10.684,-8.674 -16.474,-8.656 -27.14,0 l -193.453,193.451 c -5.327,5.857 -6.63,16.108 -1.906,22.6 21.521,18.741 40.871,44.559 62.52,62.579 10.895,9.068 18.62,9.015 29.722,-0.002 36.955,-34.62 71.913,-79.106 110.22,-111.604 3.871,-3.284 10.239,-8.849 15.195,-9.415 13.191,-1.507 37.453,29.815 46.694,39.13 C -75.711,-74.315 -37.573,-37.422 0,0"
         style="fill:#1b2f50;fill-opacity:1;fill-rule:nonzero;stroke:none"
         transform="matrix(0.26489337,0,0,-0.26868826,26.73424,8.5562629)"
         clip-path="url(#clipPath7)" />
      <path
         id="path12"
         d="m 0,0 c -0.216,0.126 -1.012,2.659 -2.026,3.71 -54.348,56.357 -145.316,79.861 -221.695,68.13 -72.555,-11.143 -128.881,-46.55 -174.916,-102.365 -117.608,-142.594 -43.035,-367.034 132.52,-416.806 113.594,-32.204 209.023,-4.247 287.25,82.155 53.615,59.218 77.446,146.726 59.953,225.052 0.463,2.527 14.054,16.355 15.468,14.84 16.044,-65.162 5.842,-132.859 -21.313,-193.404 -36.108,-80.507 -143.607,-155.591 -232.049,-160.015 -159.635,-7.985 -288.716,89.134 -312.403,248.714 -17.045,114.837 39.58,227.12 138.491,285.019 91.096,53.324 197.675,49.923 288.862,-0.821 C -34.567,50.151 15.294,16.303 15.289,12.073 12.155,9.902 3.731,-2.182 0,0"
         style="fill:#1b2f50;fill-opacity:1;fill-rule:nonzero;stroke:none"
         transform="matrix(0.26489337,0,0,-0.26868826,39.878672,-14.24062)"
         clip-path="url(#clipPath9)" />
    </g>
  </g>
</svg>
